<svg xmlns="http://www.w3.org/2000/svg" fill="none" viewBox="0 0 24 24" stroke-width="1.5" stroke="currentColor"><path stroke-linecap="round" stroke-linejoin="round" d="M9.75 3.104v5.714a2.25 2.25 0 0 1-.659 1.591L5 14.5M9.75 3.104c-.251.023-.501.05-.75.082m.75-.082a24.301 24.301 0 0 1 4.5 0m0 0v5.714c0 .597.237 1.17.659 1.591L19.8 15M14.25 3.104c.251.023.501.05.75.082M19.8 15a2.25 2.25 0 0 1 .45 1.328 2.25 2.25 0 0 1-2.25 2.25H5.25a2.25 2.25 0 0 1-2.25-2.25 2.25 2.25 0 0 1 .45-1.328L5 14.5m14.8.5-2.58-2.58M5 14.5l2.58-2.58" /></svg>
