<svg xmlns="http://www.w3.org/2000/svg" fill="none" viewBox="0 0 24 24" stroke-width="1.5" stroke="currentColor"><path stroke-linecap="round" stroke-linejoin="round" d="M21.75 17.25v.75a2.25 2.25 0 0 1-2.25 2.25h-15a2.25 2.25 0 0 1-2.25-2.25v-.75m19.5 0A2.25 2.25 0 0 0 21.75 15v-1.5a2.25 2.25 0 0 0-2.25-2.25H4.5A2.25 2.25 0 0 0 2.25 13.5V15a2.25 2.25 0 0 0 2.25 2.25m19.5 0v.75a2.25 2.25 0 0 1-2.25 2.25h-15a2.25 2.25 0 0 1-2.25-2.25v-.75m19.5-9.75A2.25 2.25 0 0 0 21.75 5.25V3.75A2.25 2.25 0 0 0 19.5 1.5h-15A2.25 2.25 0 0 0 2.25 3.75v1.5A2.25 2.25 0 0 0 4.5 7.5h15a2.25 2.25 0 0 0 2.25-2.25Z" /></svg>