<svg xmlns="http://www.w3.org/2000/svg" fill="none" viewBox="0 0 24 24" stroke-width="1.5" stroke="currentColor"><path stroke-linecap="round" stroke-linejoin="round" d="M11.42 15.17 17.25 21A2.652 2.652 0 0 0 21 17.25l-5.877-5.877M11.42 15.17l2.496-3.03c.317-.384.74-.626 1.208-.766M11.42 15.17l-4.655 5.653a2.548 2.548 0 1 1-3.586-3.586l5.654-4.654m5.664-1.762c-.261-.188-.52-.37-.785-.547m-4.879 4.879c-.188-.261-.37-.52-.547-.785m0 0 2.496-3.03M7.5 7.5a2.625 2.625 0 1 1 4.242-3.165A4.48 4.48 0 0 1 14.25 3a4.5 4.5 0 0 1 4.5 4.5c0 1.243-.505 2.368-1.32 3.173" /></svg>